# xmcd CD database file
#
# Track frame offsets:
#	150
#	16758
#	34633
#	54755
#	71552
#	88966
#	101542
#	125898
#	144696
#	162356
#	188833
#
# Disc length: 2921 seconds
#
# Revision: 2
# Processed by: cddbd v1.5.2PL0 Copyright (c) Steve Scherf et al.
# Submitted via: CDex 1.40Release
#
DISCID=930b670b
DTITLE=Dorian - El Futuro No Es De Nadie
DYEAR=2006
DGENRE=Electro-Pop
TTITLE0=Mas Problemas
TTITLE1=Cualquier Otra Parte
TTITLE2=El Futuro No Es Nadie
TTITLE3=Tan Lejos De Ti
TTITLE4=La Noche Espiral
TTITLE5=Al Final De La Escapa
TTITLE6=Corta El Aire
TTITLE7=La Playa Bajo El Asfalto
TTITLE8=Dicen
TTITLE9=Desorden
TTITLE10=
EXTD=YEAR: 2006
EXTT0=
EXTT1=
EXTT2=
EXTT3=
EXTT4=
EXTT5=
EXTT6=
EXTT7=
EXTT8=
EXTT9=
EXTT10=
PLAYORDER=
